Coordinates
version=1
nRows=5
nColumns=40
inDegrees=yes

Units are S.I. units (second, meters, Newtons, ...)
Angles are in degrees.

endheader
time	pelvis_tilt	pelvis_list	pelvis_rotation	pelvis_tx	pelvis_ty	pelvis_tz	hip_flexion_r	hip_adduction_r	hip_rotation_r	knee_angle_r	knee_angle_r_beta	ankle_angle_r	subtalar_angle_r	mtp_angle_r	hip_flexion_l	hip_adduction_l	hip_rotation_l	knee_angle_l	knee_angle_l_beta	ankle_angle_l	subtalar_angle_l	mtp_angle_l	lumbar_extension	lumbar_bending	lumbar_rotation	arm_flex_r	arm_add_r	arm_rot_r	elbow_flex_r	pro_sup_r	wrist_flex_r	wrist_dev_r	arm_flex_l	arm_add_l	arm_rot_l	elbow_flex_l	pro_sup_l	wrist_flex_l	wrist_dev_l
     34.52242857	     -9.43778207	     -6.77452901	      2.19834296	      1.11308417	      0.91412736	      0.48544727	      2.52606593	      4.86113442	    -17.44207268	      9.17595847	      9.17595847	     16.35476146	      6.66815509	     -2.24282425	     34.86147299	     -7.99609081	     -1.13291009	     19.95124384	     19.95124384	      1.19719535	    -12.19548228	      5.62434103	    -10.77968369	      7.04561668	      4.11341482	     36.58602904	    -13.12659292	      7.70701307	     92.25817131	     44.35095674	      0.00000000	      0.00000000	     -7.51344793	     -7.39925249	    -10.85209500	     33.70465282	     46.75884035	      0.00000000	      0.00000000
     34.53485714	     -9.36386806	     -6.71293401	      2.16144252	      1.11504259	      0.91342689	      0.48353322	      1.91243631	      4.63030275	    -17.26708528	      9.43373843	      9.43373843	     16.63223721	      6.63131090	     -2.33014144	     34.56604757	     -7.88492769	     -1.19605834	     20.79666569	     20.79666569	      0.96830989	    -12.60062641	      5.49290104	    -10.66747026	      6.95593451	      4.16019964	     35.90330361	    -12.75184742	      7.93198926	     92.08259675	     44.35003578	      0.00000000	      0.00000000	     -7.31661380	     -7.50399555	    -10.85347358	     33.77176192	     46.76006956	      0.00000000	      0.00000000
     34.54728571	     -9.33310538	     -6.61419304	      2.20593089	      1.11679368	      0.91301965	      0.48121049	      1.37236821	      4.33479162	    -17.15456110	      9.70066383	      9.70066383	     16.84562525	      6.53317368	     -2.40169645	     34.28610692	     -7.65873628	     -1.13645128	     21.54351290	     21.54351290	      0.88450748	    -12.94816553	      5.38118061	    -10.55380615	      6.92606487	      4.05988448	     35.22094813	    -12.51876475	      8.13493201	     91.92496481	     44.34755104	      0.00000000	      0.00000000	     -7.05066563	     -7.57522050	    -10.85031312	     33.88343246	     46.76276228	      0.00000000	      0.00000000
     34.55971429	     -9.33366237	     -6.55340645	      2.24920006	      1.11825774	      0.91252265	      0.47880340	      1.21625509	      3.96821154	    -17.03212541	     10.62298456	     10.62298456	     17.13393297	      6.11533624	     -2.56587436	     34.37543760	     -7.38290919	     -0.57850999	     22.88382165	     22.88382165	      1.03631886	    -14.03114199	      5.21317999	    -10.46904025	      6.81327364	      4.06582328	     34.32101188	    -12.40597812	      8.37585516	     91.57129183	     44.35638191	      0.00000000	      0.00000000	     -6.78975261	     -7.66712598	    -10.83158848	     34.13868485	     46.75895598	      0.00000000	      0.00000000
     34.57214286	     -9.23287654	     -6.37567708	      2.35911379	      1.11981438	      0.91280889	      0.47601031	      0.73465642	      3.52407668	    -16.97657646	     11.09967836	     11.09967836	     17.15959352	      5.90716003	     -2.61082307	     34.04980956	     -6.98666829	     -0.26359348	     23.69072152	     23.69072152	      1.39730925	    -14.48651438	      5.07001604	    -10.54322013	      6.65796628	      3.90048610	     33.21555088	    -12.26691982	      8.63578294	     91.21180282	     44.35774709	      0.00000000	      0.00000000	     -6.42779122	     -7.74576634	    -10.82400957	     34.33901694	     46.76200494	      0.00000000	      0.00000000
